<?xml version="1.0" standalone="no"?>
<!DOCTYPE svg PUBLIC "-//W3C//DTD SVG 20010904//EN"
 "http://www.w3.org/TR/2001/REC-SVG-20010904/DTD/svg10.dtd">
<svg version="1.0" xmlns="http://www.w3.org/2000/svg"
 width="19.000000pt" height="20.000000pt" viewBox="0 0 19.000000 20.000000"
 preserveAspectRatio="xMidYMid meet">

<g transform="translate(0.000000,20.000000) scale(0.100000,-0.100000)"
fill="#000000" stroke="none">
<path d="M50 161 c0 -16 -6 -31 -15 -35 -23 -8 -18 -41 11 -75 49 -59 124 -32
124 44 0 38 -16 55 -51 55 -18 0 -28 6 -32 20 -8 32 -37 25 -37 -9z m30 -19
c0 -21 2 -24 10 -12 8 12 11 13 19 1 7 -11 10 -11 15 0 5 11 7 11 12 1 3 -6
10 -10 15 -6 13 8 10 -49 -4 -66 -7 -8 -26 -16 -43 -18 -26 -2 -36 3 -53 27
-30 42 -25 71 8 39 10 -11 11 -4 5 31 -5 32 -4 42 4 37 7 -4 12 -19 12 -34z"/>
<path d="M92 80 c0 -14 2 -19 5 -12 2 6 2 18 0 25 -3 6 -5 1 -5 -13z"/>
<path d="M112 80 c0 -14 2 -19 5 -12 2 6 2 18 0 25 -3 6 -5 1 -5 -13z"/>
<path d="M132 80 c0 -14 2 -19 5 -12 2 6 2 18 0 25 -3 6 -5 1 -5 -13z"/>
</g>
</svg>
